<svg width="130" height="130" viewBox="0 0 130 130" fill="none" xmlns="http://www.w3.org/2000/svg">
<path d="M110 69.5C112.485 69.5 114.5 67.4853 114.5 65C114.5 62.5147 112.485 60.5 110 60.5V69.5ZM16.818 61.818C15.0607 63.5754 15.0607 66.4246 16.818 68.182L45.4558 96.8198C47.2132 98.5772 50.0624 98.5772 51.8198 96.8198C53.5772 95.0624 53.5772 92.2132 51.8198 90.4558L26.364 65L51.8198 39.5442C53.5772 37.7868 53.5772 34.9376 51.8198 33.1802C50.0624 31.4228 47.2132 31.4228 45.4558 33.1802L16.818 61.818ZM110 60.5L20 60.5V69.5L110 69.5V60.5Z" fill="black"/>
</svg>
