<svg width="36" height="56" viewBox="0 0 36 56" fill="none" xmlns="http://www.w3.org/2000/svg">
<path d="M9.40002 30.2V19.7999C9.40002 17.4999 11.2 15.7 13.5 15.7C15.8 15.7 17.6 17.4999 17.6 19.7999V30.0999" stroke="#2D1F3C" stroke-width="2.1038" stroke-miterlimit="10"/>
<path d="M17.6 30.5999V21.9999C17.6 19.6999 19.4 17.8999 21.7 17.8999C24 17.8999 25.8 19.6999 25.8 21.9999V30.5999" stroke="#2D1F3C" stroke-width="2.1038" stroke-miterlimit="10"/>
<path d="M25.8 30.1999V23.9999C25.8 21.6999 27.6 19.8999 29.9 19.8999C32.2 19.8999 34 21.6999 34 23.9999V37.9999" stroke="#2D1F3C" stroke-width="2.1038" stroke-miterlimit="10"/>
<path d="M9.39995 30.2V5.79995C9.39995 3.49995 7.59996 1.69995 5.29996 1.69995C2.99996 1.69995 1.19995 3.49995 1.19995 5.79995V37.7999C1.19995 46.9 8.49996 54.2 17.6 54.2C26.7 54.2 34 46.9 34 37.7999" stroke="#2D1F3C" stroke-width="2.1038" stroke-miterlimit="10"/>
</svg>
