<svg width="107" height="73" viewBox="0 0 107 73" fill="none" xmlns="http://www.w3.org/2000/svg">
<path d="M36.9543 0.976562C17.0593 0.976562 0.963379 17.0646 0.963379 36.9497C0.963379 56.8349 17.0593 72.9229 36.9543 72.9229H70.9458C90.8408 72.9229 106.937 56.8349 106.937 36.9497C106.937 17.0646 90.8408 0.976562 70.9458 0.976562H36.9543Z" fill="white"/>
<path d="M69.9459 39.0479V28.7556C69.9459 26.4573 68.1464 24.6587 65.8469 24.6587C63.5475 24.6587 61.748 26.4573 61.748 28.7556V39.1479V14.866C61.748 12.5677 59.9484 10.769 57.649 10.769C55.3496 10.769 53.55 12.5677 53.55 14.866V46.8421C53.55 55.9353 60.8482 63.2299 69.9459 63.2299C79.0436 63.2299 86.3418 55.9353 86.3418 46.8421M69.9459 39.6475V31.0539C69.9459 28.7556 71.7455 26.957 74.0449 26.957C76.3443 26.957 78.1439 28.7556 78.1439 31.0539V39.6475M78.2438 39.1479V32.8526C78.2438 30.5543 80.0434 28.7556 82.3428 28.7556C84.6422 28.7556 86.4418 30.5543 86.4418 32.8526V46.8421" stroke="#2D1E3B" stroke-width="2.1038" stroke-miterlimit="10"/>
<path d="M38.5538 20.4622L36.9542 21.8611L29.756 14.1669L22.5579 21.8611L20.9583 20.4622L29.756 10.9692L38.5538 20.4622Z" fill="#2D1E3B"/>
<path d="M29.7561 13.9668V61.931" stroke="#2D1E3B" stroke-width="2.1501" stroke-miterlimit="10"/>
<path d="M20.9583 54.7367L22.5579 53.2378L29.756 61.032L36.9542 53.2378L38.5538 54.7367L29.756 64.1297L20.9583 54.7367Z" fill="#2D1E3B"/>
</svg>
