<svg width="96" height="96" viewBox="0 0 96 96" fill="none" xmlns="http://www.w3.org/2000/svg">
<path d="M48.949 96H47.051C21.078 96 0 74.922 0 48.949V47.051C0 21.078 21.078 0 47.051 0H48.949C74.922 0 96 21.078 96 47.051V48.949C96 74.922 74.922 96 48.949 96Z" fill="#E74242"/>
<path d="M60.9366 31.1677L28.5703 42.0564C25.3736 43.1552 25.4735 47.6506 28.5703 48.6495L41.5567 52.7452C42.6556 53.0449 43.4548 53.944 43.7545 54.9429L47.8502 67.9294C48.8492 71.1261 53.3445 71.1261 54.4433 67.9294L65.2321 35.5631C66.2311 32.8659 63.6337 30.2686 60.9366 31.1677Z" fill="white"/>
</svg>
